<svg width="114" height="114" viewBox="0 0 114 114" fill="none" xmlns="http://www.w3.org/2000/svg">
<g filter="url(#filter0_d_8_59)">
<circle cx="57" cy="42" r="27" fill="#101A24"/>
<path d="M41.299 48.1591C40.4505 48.1591 39.6948 48.0133 39.032 47.7216C38.3729 47.4261 37.852 47.0208 37.4695 46.5057C37.0907 45.9867 36.8956 45.3883 36.8842 44.7102H39.3615C39.3767 44.9943 39.4695 45.2443 39.6399 45.4602C39.8142 45.6723 40.0452 45.8371 40.3331 45.9545C40.621 46.072 40.9448 46.1307 41.3047 46.1307C41.6797 46.1307 42.0111 46.0644 42.299 45.9318C42.5869 45.7992 42.8123 45.6155 42.9751 45.3807C43.138 45.1458 43.2195 44.875 43.2195 44.5682C43.2195 44.2576 43.1323 43.983 42.9581 43.7443C42.7876 43.5019 42.5414 43.3125 42.2195 43.1761C41.9013 43.0398 41.5225 42.9716 41.0831 42.9716H39.9979V41.1648H41.0831C41.4543 41.1648 41.782 41.1004 42.0661 40.9716C42.3539 40.8428 42.5774 40.6648 42.7365 40.4375C42.8956 40.2064 42.9751 39.9375 42.9751 39.6307C42.9751 39.339 42.9051 39.0833 42.7649 38.8636C42.6286 38.6402 42.4354 38.4659 42.1854 38.3409C41.9392 38.2159 41.6513 38.1534 41.3217 38.1534C40.9884 38.1534 40.6835 38.214 40.407 38.3352C40.1304 38.4527 39.9089 38.6212 39.7422 38.8409C39.5755 39.0606 39.4865 39.3182 39.4751 39.6136H37.1172C37.1286 38.9432 37.3198 38.3523 37.6911 37.8409C38.0623 37.3295 38.5623 36.9299 39.1911 36.642C39.8236 36.3504 40.5376 36.2045 41.3331 36.2045C42.1361 36.2045 42.8388 36.3504 43.4411 36.642C44.0433 36.9337 44.5111 37.3277 44.8445 37.8239C45.1816 38.3163 45.3482 38.8693 45.3445 39.483C45.3482 40.1345 45.1456 40.678 44.7365 41.1136C44.3312 41.5492 43.8028 41.8258 43.1513 41.9432V42.0341C44.0073 42.1439 44.6589 42.4413 45.1058 42.9261C45.5566 43.4072 45.7801 44.0095 45.7763 44.733C45.7801 45.3958 45.5888 45.9848 45.2024 46.5C44.8198 47.0152 44.2914 47.4205 43.6172 47.7159C42.9429 48.0114 42.1702 48.1591 41.299 48.1591ZM51.7947 48.1591C50.9917 48.1591 50.2758 48.0114 49.647 47.7159C49.022 47.4205 48.5258 47.0133 48.1584 46.4943C47.791 45.9754 47.5997 45.3807 47.5845 44.7102H49.9709C49.9974 45.161 50.1868 45.5265 50.5391 45.8068C50.8913 46.0871 51.3099 46.2273 51.7947 46.2273C52.1811 46.2273 52.522 46.142 52.8175 45.9716C53.1167 45.7973 53.3497 45.5568 53.5163 45.25C53.6868 44.9394 53.772 44.5833 53.772 44.1818C53.772 43.7727 53.6849 43.4129 53.5107 43.1023C53.3402 42.7917 53.1035 42.5492 52.8004 42.375C52.4974 42.2008 52.1508 42.1117 51.7607 42.108C51.4197 42.108 51.0883 42.178 50.7663 42.3182C50.4482 42.4583 50.2 42.6496 50.022 42.892L47.8345 42.5L48.3857 36.3636H55.4993V38.375H50.4141L50.1129 41.2898H50.1811C50.3857 41.0019 50.6944 40.7633 51.1072 40.5739C51.5201 40.3845 51.9822 40.2898 52.4936 40.2898C53.1944 40.2898 53.8194 40.4545 54.3686 40.7841C54.9179 41.1136 55.3516 41.5663 55.6697 42.142C55.9879 42.714 56.1451 43.3731 56.1413 44.1193C56.1451 44.9034 55.9633 45.6004 55.5959 46.2102C55.2322 46.8163 54.7228 47.2936 54.0675 47.642C53.416 47.9867 52.6584 48.1591 51.7947 48.1591ZM62.4197 48.2557C61.4425 48.2519 60.6016 48.0114 59.897 47.5341C59.1963 47.0568 58.6565 46.3655 58.2777 45.4602C57.9027 44.5549 57.7171 43.4659 57.7209 42.1932C57.7209 40.9242 57.9084 39.8428 58.2834 38.9489C58.6622 38.0549 59.2019 37.375 59.9027 36.9091C60.6072 36.4394 61.4463 36.2045 62.4197 36.2045C63.3932 36.2045 64.2304 36.4394 64.9311 36.9091C65.6357 37.3788 66.1773 38.0606 66.5561 38.9545C66.9349 39.8447 67.1224 40.9242 67.1186 42.1932C67.1186 43.4697 66.9292 44.5606 66.5504 45.4659C66.1754 46.3712 65.6375 47.0625 64.9368 47.5398C64.236 48.017 63.397 48.2557 62.4197 48.2557ZM62.4197 46.2159C63.0864 46.2159 63.6186 45.8807 64.0163 45.2102C64.4141 44.5398 64.611 43.5341 64.6072 42.1932C64.6072 41.3106 64.5163 40.5758 64.3345 39.9886C64.1565 39.4015 63.9027 38.9602 63.5732 38.6648C63.2474 38.3693 62.8629 38.2216 62.4197 38.2216C61.7569 38.2216 61.2266 38.553 60.8288 39.2159C60.4311 39.8788 60.2304 40.8712 60.2266 42.1932C60.2266 43.0871 60.3156 43.8333 60.4936 44.4318C60.6754 45.0265 60.9311 45.4735 61.2607 45.7727C61.5902 46.0682 61.9766 46.2159 62.4197 46.2159ZM73.4354 48.2557C72.4581 48.2519 71.6172 48.0114 70.9126 47.5341C70.2119 47.0568 69.6721 46.3655 69.2933 45.4602C68.9183 44.5549 68.7327 43.4659 68.7365 42.1932C68.7365 40.9242 68.924 39.8428 69.299 38.9489C69.6778 38.0549 70.2176 37.375 70.9183 36.9091C71.6229 36.4394 72.4619 36.2045 73.4354 36.2045C74.4089 36.2045 75.246 36.4394 75.9467 36.9091C76.6513 37.3788 77.1929 38.0606 77.5717 38.9545C77.9505 39.8447 78.138 40.9242 78.1342 42.1932C78.1342 43.4697 77.9448 44.5606 77.5661 45.4659C77.1911 46.3712 76.6532 47.0625 75.9524 47.5398C75.2517 48.017 74.4126 48.2557 73.4354 48.2557ZM73.4354 46.2159C74.102 46.2159 74.6342 45.8807 75.032 45.2102C75.4297 44.5398 75.6267 43.5341 75.6229 42.1932C75.6229 41.3106 75.532 40.5758 75.3501 39.9886C75.1721 39.4015 74.9183 38.9602 74.5888 38.6648C74.263 38.3693 73.8786 38.2216 73.4354 38.2216C72.7725 38.2216 72.2422 38.553 71.8445 39.2159C71.4467 39.8788 71.246 40.8712 71.2422 42.1932C71.2422 43.0871 71.3312 43.8333 71.5092 44.4318C71.6911 45.0265 71.9467 45.4735 72.2763 45.7727C72.6058 46.0682 72.9922 46.2159 73.4354 46.2159Z" fill="white"/>
</g>
<defs>
<filter id="filter0_d_8_59" x="0" y="0" width="114" height="114" filterUnits="userSpaceOnUse" color-interpolation-filters="sRGB">
<feFlood flood-opacity="0" result="BackgroundImageFix"/>
<feColorMatrix in="SourceAlpha" type="matrix" values="0 0 0 0 0 0 0 0 0 0 0 0 0 0 0 0 0 0 127 0" result="hardAlpha"/>
<feOffset dy="15"/>
<feGaussianBlur stdDeviation="15"/>
<feComposite in2="hardAlpha" operator="out"/>
<feColorMatrix type="matrix" values="0 0 0 0 0 0 0 0 0 0 0 0 0 0 0 0 0 0 0.25 0"/>
<feBlend mode="normal" in2="BackgroundImageFix" result="effect1_dropShadow_8_59"/>
<feBlend mode="normal" in="SourceGraphic" in2="effect1_dropShadow_8_59" result="shape"/>
</filter>
</defs>
</svg>
