<svg width="114" height="114" viewBox="0 0 114 114" fill="none" xmlns="http://www.w3.org/2000/svg">
<g filter="url(#filter0_d_8_28)">
<circle cx="57" cy="42" r="27" fill="#101A24"/>
<path d="M37.2322 48V46.2273L41.3743 42.392C41.7266 42.0511 42.022 41.7443 42.2607 41.4716C42.5031 41.1989 42.6868 40.9318 42.8118 40.6705C42.9368 40.4053 42.9993 40.1193 42.9993 39.8125C42.9993 39.4716 42.9216 39.178 42.7663 38.9318C42.611 38.6818 42.3989 38.4905 42.13 38.358C41.861 38.2216 41.5561 38.1534 41.2152 38.1534C40.8591 38.1534 40.5485 38.2254 40.2834 38.3693C40.0182 38.5133 39.8137 38.7197 39.6697 38.9886C39.5258 39.2576 39.4538 39.5777 39.4538 39.9489H37.1186C37.1186 39.1875 37.291 38.5265 37.6357 37.9659C37.9804 37.4053 38.4633 36.9716 39.0845 36.6648C39.7057 36.358 40.4216 36.2045 41.2322 36.2045C42.0656 36.2045 42.791 36.3523 43.4084 36.6477C44.0296 36.9394 44.5125 37.3447 44.8572 37.8636C45.2019 38.3826 45.3743 38.9773 45.3743 39.6477C45.3743 40.0871 45.2872 40.5208 45.1129 40.9489C44.9425 41.3769 44.6375 41.8523 44.1982 42.375C43.7588 42.8939 43.1394 43.517 42.3402 44.2443L40.6413 45.9091V45.9886H45.5277V48H37.2322ZM51.5604 48.1591C50.7573 48.1591 50.0414 48.0114 49.4126 47.7159C48.7876 47.4205 48.2914 47.0133 47.924 46.4943C47.5566 45.9754 47.3653 45.3807 47.3501 44.7102H49.7365C49.763 45.161 49.9524 45.5265 50.3047 45.8068C50.657 46.0871 51.0755 46.2273 51.5604 46.2273C51.9467 46.2273 52.2876 46.142 52.5831 45.9716C52.8823 45.7973 53.1153 45.5568 53.282 45.25C53.4524 44.9394 53.5376 44.5833 53.5376 44.1818C53.5376 43.7727 53.4505 43.4129 53.2763 43.1023C53.1058 42.7917 52.8691 42.5492 52.5661 42.375C52.263 42.2008 51.9164 42.1117 51.5263 42.108C51.1854 42.108 50.8539 42.178 50.532 42.3182C50.2138 42.4583 49.9657 42.6496 49.7876 42.892L47.6001 42.5L48.1513 36.3636H55.2649V38.375H50.1797L49.8786 41.2898H49.9467C50.1513 41.0019 50.46 40.7633 50.8729 40.5739C51.2857 40.3845 51.7479 40.2898 52.2592 40.2898C52.96 40.2898 53.585 40.4545 54.1342 40.7841C54.6835 41.1136 55.1172 41.5663 55.4354 42.142C55.7536 42.714 55.9107 43.3731 55.907 44.1193C55.9107 44.9034 55.7289 45.6004 55.3615 46.2102C54.9979 46.8163 54.4884 47.2936 53.8331 47.642C53.1816 47.9867 52.424 48.1591 51.5604 48.1591ZM62.1854 48.2557C61.2081 48.2519 60.3672 48.0114 59.6626 47.5341C58.9619 47.0568 58.4221 46.3655 58.0433 45.4602C57.6683 44.5549 57.4827 43.4659 57.4865 42.1932C57.4865 40.9242 57.674 39.8428 58.049 38.9489C58.4278 38.0549 58.9676 37.375 59.6683 36.9091C60.3729 36.4394 61.2119 36.2045 62.1854 36.2045C63.1589 36.2045 63.996 36.4394 64.6967 36.9091C65.4013 37.3788 65.9429 38.0606 66.3217 38.9545C66.7005 39.8447 66.888 40.9242 66.8842 42.1932C66.8842 43.4697 66.6948 44.5606 66.3161 45.4659C65.9411 46.3712 65.4032 47.0625 64.7024 47.5398C64.0017 48.017 63.1626 48.2557 62.1854 48.2557ZM62.1854 46.2159C62.852 46.2159 63.3842 45.8807 63.782 45.2102C64.1797 44.5398 64.3767 43.5341 64.3729 42.1932C64.3729 41.3106 64.282 40.5758 64.1001 39.9886C63.9221 39.4015 63.6683 38.9602 63.3388 38.6648C63.013 38.3693 62.6286 38.2216 62.1854 38.2216C61.5225 38.2216 60.9922 38.553 60.5945 39.2159C60.1967 39.8788 59.996 40.8712 59.9922 42.1932C59.9922 43.0871 60.0812 43.8333 60.2592 44.4318C60.4411 45.0265 60.6967 45.4735 61.0263 45.7727C61.3558 46.0682 61.7422 46.2159 62.1854 46.2159ZM73.201 48.2557C72.2237 48.2519 71.3828 48.0114 70.6783 47.5341C69.9775 47.0568 69.4377 46.3655 69.0589 45.4602C68.6839 44.5549 68.4983 43.4659 68.5021 42.1932C68.5021 40.9242 68.6896 39.8428 69.0646 38.9489C69.4434 38.0549 69.9832 37.375 70.6839 36.9091C71.3885 36.4394 72.2275 36.2045 73.201 36.2045C74.1745 36.2045 75.0116 36.4394 75.7124 36.9091C76.4169 37.3788 76.9586 38.0606 77.3374 38.9545C77.7161 39.8447 77.9036 40.9242 77.8999 42.1932C77.8999 43.4697 77.7105 44.5606 77.3317 45.4659C76.9567 46.3712 76.4188 47.0625 75.718 47.5398C75.0173 48.017 74.1783 48.2557 73.201 48.2557ZM73.201 46.2159C73.8677 46.2159 74.3999 45.8807 74.7976 45.2102C75.1953 44.5398 75.3923 43.5341 75.3885 42.1932C75.3885 41.3106 75.2976 40.5758 75.1158 39.9886C74.9377 39.4015 74.6839 38.9602 74.3544 38.6648C74.0286 38.3693 73.6442 38.2216 73.201 38.2216C72.5381 38.2216 72.0078 38.553 71.6101 39.2159C71.2124 39.8788 71.0116 40.8712 71.0078 42.1932C71.0078 43.0871 71.0968 43.8333 71.2749 44.4318C71.4567 45.0265 71.7124 45.4735 72.0419 45.7727C72.3714 46.0682 72.7578 46.2159 73.201 46.2159Z" fill="white"/>
</g>
<defs>
<filter id="filter0_d_8_28" x="0" y="0" width="114" height="114" filterUnits="userSpaceOnUse" color-interpolation-filters="sRGB">
<feFlood flood-opacity="0" result="BackgroundImageFix"/>
<feColorMatrix in="SourceAlpha" type="matrix" values="0 0 0 0 0 0 0 0 0 0 0 0 0 0 0 0 0 0 127 0" result="hardAlpha"/>
<feOffset dy="15"/>
<feGaussianBlur stdDeviation="15"/>
<feComposite in2="hardAlpha" operator="out"/>
<feColorMatrix type="matrix" values="0 0 0 0 0 0 0 0 0 0 0 0 0 0 0 0 0 0 0.25 0"/>
<feBlend mode="normal" in2="BackgroundImageFix" result="effect1_dropShadow_8_28"/>
<feBlend mode="normal" in="SourceGraphic" in2="effect1_dropShadow_8_28" result="shape"/>
</filter>
</defs>
</svg>
