<svg width="114" height="114" viewBox="0 0 114 114" fill="none" xmlns="http://www.w3.org/2000/svg">
<g filter="url(#filter0_d_8_80)">
<circle cx="57" cy="42" r="27" fill="#101A24"/>
<path d="M43.0135 36.3636V48H40.5533V38.6989H40.4851L37.8203 40.3693V38.1875L40.701 36.3636H43.0135ZM49.9893 36.2045C50.5878 36.2045 51.1636 36.3049 51.7166 36.5057C52.2734 36.7064 52.7696 37.0265 53.2053 37.4659C53.6446 37.9053 53.9912 38.4886 54.245 39.2159C54.5026 39.9394 54.6333 40.8277 54.6371 41.8807C54.6371 42.8693 54.5253 43.7519 54.3018 44.5284C54.0821 45.3011 53.7659 45.9583 53.353 46.5C52.9401 47.0417 52.442 47.4545 51.8587 47.7386C51.2753 48.0189 50.6238 48.1591 49.9041 48.1591C49.1276 48.1591 48.442 48.0095 47.8473 47.7102C47.2526 47.4072 46.7734 46.9962 46.4098 46.4773C46.05 45.9545 45.8321 45.3674 45.7564 44.7159H48.1825C48.2772 45.1402 48.4761 45.4697 48.7791 45.7045C49.0821 45.9356 49.4571 46.0511 49.9041 46.0511C50.6617 46.0511 51.2375 45.7216 51.6314 45.0625C52.0253 44.3996 52.2242 43.4924 52.228 42.3409H52.1484C51.9742 42.6818 51.7393 42.9754 51.4439 43.2216C51.1484 43.464 50.8094 43.6515 50.4268 43.7841C50.0481 43.9167 49.6446 43.983 49.2166 43.983C48.531 43.983 47.9193 43.822 47.3814 43.5C46.8435 43.178 46.4193 42.7348 46.1087 42.1705C45.7981 41.6061 45.6428 40.9621 45.6428 40.2386C45.639 39.4583 45.8189 38.7633 46.1825 38.1534C46.5462 37.5436 47.0537 37.0663 47.7053 36.7216C48.3606 36.3731 49.1219 36.2008 49.9893 36.2045ZM50.0064 38.1364C49.6238 38.1364 49.2829 38.2273 48.9837 38.4091C48.6882 38.5909 48.4534 38.8352 48.2791 39.142C48.1087 39.4489 48.0253 39.7917 48.0291 40.1705C48.0291 40.553 48.1125 40.8977 48.2791 41.2045C48.4496 41.5076 48.6806 41.75 48.9723 41.9318C49.2678 42.1098 49.6049 42.1989 49.9837 42.1989C50.2678 42.1989 50.531 42.1458 50.7734 42.0398C51.0159 41.9337 51.2261 41.7879 51.4041 41.6023C51.5859 41.4129 51.728 41.1951 51.8303 40.9489C51.9325 40.7027 51.9837 40.4413 51.9837 40.1648C51.9799 39.7973 51.8928 39.4602 51.7223 39.1534C51.5518 38.8466 51.317 38.6004 51.0178 38.4148C50.7185 38.2292 50.3814 38.1364 50.0064 38.1364ZM60.6825 48.1591C59.8075 48.1591 59.0291 48.017 58.3473 47.733C57.6693 47.4451 57.1371 47.053 56.7507 46.5568C56.3643 46.0606 56.1712 45.4981 56.1712 44.8693C56.1712 44.3845 56.281 43.9394 56.5007 43.5341C56.7242 43.125 57.0272 42.786 57.4098 42.517C57.7924 42.2443 58.2204 42.0701 58.6939 41.9943V41.9148C58.0727 41.7898 57.5689 41.4886 57.1825 41.0114C56.7962 40.5303 56.603 39.9716 56.603 39.3352C56.603 38.733 56.7791 38.197 57.1314 37.7273C57.4837 37.2538 57.9666 36.8826 58.5803 36.6136C59.1977 36.3409 59.8984 36.2045 60.6825 36.2045C61.4666 36.2045 62.1655 36.3409 62.7791 36.6136C63.3965 36.8864 63.8814 37.2595 64.2337 37.733C64.5859 38.2027 64.764 38.7367 64.7678 39.3352C64.764 39.9754 64.567 40.5341 64.1768 41.0114C63.7867 41.4886 63.2867 41.7898 62.6768 41.9148V41.9943C63.1428 42.0701 63.5651 42.2443 63.9439 42.517C64.3265 42.786 64.6295 43.125 64.853 43.5341C65.0803 43.9394 65.1958 44.3845 65.1996 44.8693C65.1958 45.4981 65.0007 46.0606 64.6143 46.5568C64.228 47.053 63.6939 47.4451 63.0121 47.733C62.334 48.017 61.5575 48.1591 60.6825 48.1591ZM60.6825 46.3523C61.0727 46.3523 61.4136 46.2822 61.7053 46.142C61.9969 45.9981 62.2242 45.8011 62.3871 45.5511C62.5537 45.2973 62.6371 45.0057 62.6371 44.6761C62.6371 44.339 62.5518 44.0417 62.3814 43.7841C62.2109 43.5227 61.9799 43.3182 61.6882 43.1705C61.3965 43.0189 61.0613 42.9432 60.6825 42.9432C60.3075 42.9432 59.9723 43.0189 59.6768 43.1705C59.3814 43.3182 59.1484 43.5227 58.978 43.7841C58.8113 44.0417 58.728 44.339 58.728 44.6761C58.728 45.0057 58.8094 45.2973 58.9723 45.5511C59.1352 45.8011 59.3643 45.9981 59.6598 46.142C59.9553 46.2822 60.2962 46.3523 60.6825 46.3523ZM60.6825 41.1534C61.0083 41.1534 61.2981 41.0871 61.5518 40.9545C61.8056 40.822 62.0045 40.6383 62.1484 40.4034C62.2924 40.1686 62.3643 39.8977 62.3643 39.5909C62.3643 39.2879 62.2924 39.0227 62.1484 38.7955C62.0045 38.5644 61.8075 38.3845 61.5575 38.2557C61.3075 38.1231 61.0159 38.0568 60.6825 38.0568C60.353 38.0568 60.0613 38.1231 59.8075 38.2557C59.5537 38.3845 59.3549 38.5644 59.2109 38.7955C59.0708 39.0227 59.0007 39.2879 59.0007 39.5909C59.0007 39.8977 59.0727 40.1686 59.2166 40.4034C59.3606 40.6383 59.5594 40.822 59.8132 40.9545C60.067 41.0871 60.3568 41.1534 60.6825 41.1534ZM71.4822 48.2557C70.505 48.2519 69.6641 48.0114 68.9595 47.5341C68.2588 47.0568 67.719 46.3655 67.3402 45.4602C66.9652 44.5549 66.7796 43.4659 66.7834 42.1932C66.7834 40.9242 66.9709 39.8428 67.3459 38.9489C67.7247 38.0549 68.2644 37.375 68.9652 36.9091C69.6697 36.4394 70.5088 36.2045 71.4822 36.2045C72.4557 36.2045 73.2929 36.4394 73.9936 36.9091C74.6982 37.3788 75.2398 38.0606 75.6186 38.9545C75.9974 39.8447 76.1849 40.9242 76.1811 42.1932C76.1811 43.4697 75.9917 44.5606 75.6129 45.4659C75.2379 46.3712 74.7 47.0625 73.9993 47.5398C73.2985 48.017 72.4595 48.2557 71.4822 48.2557ZM71.4822 46.2159C72.1489 46.2159 72.6811 45.8807 73.0788 45.2102C73.4766 44.5398 73.6735 43.5341 73.6697 42.1932C73.6697 41.3106 73.5788 40.5758 73.397 39.9886C73.219 39.4015 72.9652 38.9602 72.6357 38.6648C72.3099 38.3693 71.9254 38.2216 71.4822 38.2216C70.8194 38.2216 70.2891 38.553 69.8913 39.2159C69.4936 39.8788 69.2929 40.8712 69.2891 42.1932C69.2891 43.0871 69.3781 43.8333 69.5561 44.4318C69.7379 45.0265 69.9936 45.4735 70.3232 45.7727C70.6527 46.0682 71.0391 46.2159 71.4822 46.2159Z" fill="white"/>
</g>
<defs>
<filter id="filter0_d_8_80" x="0" y="0" width="114" height="114" filterUnits="userSpaceOnUse" color-interpolation-filters="sRGB">
<feFlood flood-opacity="0" result="BackgroundImageFix"/>
<feColorMatrix in="SourceAlpha" type="matrix" values="0 0 0 0 0 0 0 0 0 0 0 0 0 0 0 0 0 0 127 0" result="hardAlpha"/>
<feOffset dy="15"/>
<feGaussianBlur stdDeviation="15"/>
<feComposite in2="hardAlpha" operator="out"/>
<feColorMatrix type="matrix" values="0 0 0 0 0 0 0 0 0 0 0 0 0 0 0 0 0 0 0.25 0"/>
<feBlend mode="normal" in2="BackgroundImageFix" result="effect1_dropShadow_8_80"/>
<feBlend mode="normal" in="SourceGraphic" in2="effect1_dropShadow_8_80" result="shape"/>
</filter>
</defs>
</svg>
