<svg width="114" height="114" viewBox="0 0 114 114" fill="none" xmlns="http://www.w3.org/2000/svg">
<g filter="url(#filter0_d_8_67)">
<circle cx="57" cy="42" r="27" fill="#101A24"/>
<path d="M37.2557 48V46.2273L41.3977 42.392C41.75 42.0511 42.0455 41.7443 42.2841 41.4716C42.5265 41.1989 42.7102 40.9318 42.8352 40.6705C42.9602 40.4053 43.0227 40.1193 43.0227 39.8125C43.0227 39.4716 42.9451 39.178 42.7898 38.9318C42.6345 38.6818 42.4223 38.4905 42.1534 38.358C41.8845 38.2216 41.5795 38.1534 41.2386 38.1534C40.8826 38.1534 40.572 38.2254 40.3068 38.3693C40.0417 38.5133 39.8371 38.7197 39.6932 38.9886C39.5492 39.2576 39.4773 39.5777 39.4773 39.9489H37.142C37.142 39.1875 37.3144 38.5265 37.6591 37.9659C38.0038 37.4053 38.4867 36.9716 39.108 36.6648C39.7292 36.358 40.4451 36.2045 41.2557 36.2045C42.089 36.2045 42.8144 36.3523 43.4318 36.6477C44.053 36.9394 44.536 37.3447 44.8807 37.8636C45.2254 38.3826 45.3977 38.9773 45.3977 39.6477C45.3977 40.0871 45.3106 40.5208 45.1364 40.9489C44.9659 41.3769 44.661 41.8523 44.2216 42.375C43.7822 42.8939 43.1629 43.517 42.3636 44.2443L40.6648 45.9091V45.9886H45.5511V48H37.2557ZM47.794 48L52.6179 38.4545V38.375H46.9986V36.3636H55.1634V38.4034L50.3338 48H47.794ZM61.1619 48.2557C60.1847 48.2519 59.3438 48.0114 58.6392 47.5341C57.9384 47.0568 57.3987 46.3655 57.0199 45.4602C56.6449 44.5549 56.4593 43.4659 56.4631 42.1932C56.4631 40.9242 56.6506 39.8428 57.0256 38.9489C57.4044 38.0549 57.9441 37.375 58.6449 36.9091C59.3494 36.4394 60.1884 36.2045 61.1619 36.2045C62.1354 36.2045 62.9725 36.4394 63.6733 36.9091C64.3778 37.3788 64.9195 38.0606 65.2983 38.9545C65.6771 39.8447 65.8646 40.9242 65.8608 42.1932C65.8608 43.4697 65.6714 44.5606 65.2926 45.4659C64.9176 46.3712 64.3797 47.0625 63.679 47.5398C62.9782 48.017 62.1392 48.2557 61.1619 48.2557ZM61.1619 46.2159C61.8286 46.2159 62.3608 45.8807 62.7585 45.2102C63.1563 44.5398 63.3532 43.5341 63.3494 42.1932C63.3494 41.3106 63.2585 40.5758 63.0767 39.9886C62.8987 39.4015 62.6449 38.9602 62.3153 38.6648C61.9896 38.3693 61.6051 38.2216 61.1619 38.2216C60.4991 38.2216 59.9688 38.553 59.571 39.2159C59.1733 39.8788 58.9725 40.8712 58.9688 42.1932C58.9688 43.0871 59.0578 43.8333 59.2358 44.4318C59.4176 45.0265 59.6733 45.4735 60.0028 45.7727C60.3324 46.0682 60.7188 46.2159 61.1619 46.2159ZM72.1776 48.2557C71.2003 48.2519 70.3594 48.0114 69.6548 47.5341C68.9541 47.0568 68.4143 46.3655 68.0355 45.4602C67.6605 44.5549 67.4749 43.4659 67.4787 42.1932C67.4787 40.9242 67.6662 39.8428 68.0412 38.9489C68.42 38.0549 68.9598 37.375 69.6605 36.9091C70.3651 36.4394 71.2041 36.2045 72.1776 36.2045C73.151 36.2045 73.9882 36.4394 74.6889 36.9091C75.3935 37.3788 75.9351 38.0606 76.3139 38.9545C76.6927 39.8447 76.8802 40.9242 76.8764 42.1932C76.8764 43.4697 76.687 44.5606 76.3082 45.4659C75.9332 46.3712 75.3954 47.0625 74.6946 47.5398C73.9938 48.017 73.1548 48.2557 72.1776 48.2557ZM72.1776 46.2159C72.8442 46.2159 73.3764 45.8807 73.7741 45.2102C74.1719 44.5398 74.3688 43.5341 74.3651 42.1932C74.3651 41.3106 74.2741 40.5758 74.0923 39.9886C73.9143 39.4015 73.6605 38.9602 73.331 38.6648C73.0052 38.3693 72.6207 38.2216 72.1776 38.2216C71.5147 38.2216 70.9844 38.553 70.5866 39.2159C70.1889 39.8788 69.9882 40.8712 69.9844 42.1932C69.9844 43.0871 70.0734 43.8333 70.2514 44.4318C70.4332 45.0265 70.6889 45.4735 71.0185 45.7727C71.348 46.0682 71.7344 46.2159 72.1776 46.2159Z" fill="white"/>
</g>
<defs>
<filter id="filter0_d_8_67" x="0" y="0" width="114" height="114" filterUnits="userSpaceOnUse" color-interpolation-filters="sRGB">
<feFlood flood-opacity="0" result="BackgroundImageFix"/>
<feColorMatrix in="SourceAlpha" type="matrix" values="0 0 0 0 0 0 0 0 0 0 0 0 0 0 0 0 0 0 127 0" result="hardAlpha"/>
<feOffset dy="15"/>
<feGaussianBlur stdDeviation="15"/>
<feComposite in2="hardAlpha" operator="out"/>
<feColorMatrix type="matrix" values="0 0 0 0 0 0 0 0 0 0 0 0 0 0 0 0 0 0 0.25 0"/>
<feBlend mode="normal" in2="BackgroundImageFix" result="effect1_dropShadow_8_67"/>
<feBlend mode="normal" in="SourceGraphic" in2="effect1_dropShadow_8_67" result="shape"/>
</filter>
</defs>
</svg>
