<svg width="87" height="87" viewBox="0 0 87 87" fill="none" xmlns="http://www.w3.org/2000/svg">
<mask id="mask0_6_61" style="mask-type:alpha" maskUnits="userSpaceOnUse" x="0" y="0" width="87" height="87">
<path d="M18.2958 53.5947C17.8698 54.2129 18.0255 55.0595 18.6436 55.4854C19.2618 55.9114 20.1084 55.7558 20.5344 55.1376C20.5434 55.1247 20.552 55.1115 20.5605 55.0982C25.2857 47.9462 33.2858 43.6441 41.8578 43.6454C42.6086 43.6454 43.2172 43.0368 43.2172 42.2861C43.2172 41.5354 42.6086 40.9267 41.8578 40.9267C32.3747 40.9243 23.5238 45.683 18.2958 53.5947Z" fill="black"/>
<path d="M85.6406 70.833H77.4844V69.1908C77.516 60.3839 73.9245 51.9517 67.5528 45.8721C67.0248 45.3382 66.1642 45.3335 65.6303 45.8612C65.0964 46.3892 65.0916 47.2498 65.6194 47.7837C65.6354 47.7999 65.6517 47.8157 65.6685 47.831C71.5045 53.4002 74.794 61.124 74.7655 69.1908V70.833H12.2344V69.1908C12.2524 52.8377 25.5048 39.5853 41.8579 39.5673H45.1421C47.6673 39.5656 50.1823 39.8854 52.6268 40.5189C53.3461 40.7342 54.1036 40.3257 54.3189 39.6064C54.5342 38.8871 54.1257 38.1296 53.4064 37.9143C53.3735 37.9045 53.34 37.8958 53.3064 37.8885C51.4289 37.4042 49.5117 37.0899 47.578 36.9492V32.7704C47.578 32.0197 46.9693 31.4111 46.2186 31.4111H40.7811C40.0304 31.4111 39.4217 32.0197 39.4217 32.7704V36.9492C22.5643 38.2402 9.53771 52.2839 9.51546 69.1908V70.833H1.35938C0.60866 70.833 0 71.4416 0 72.1923C0 72.943 0.60866 73.5517 1.35938 73.5517H85.6406C86.3913 73.5517 87 72.943 87 72.1923C87 71.4416 86.3913 70.833 85.6406 70.833ZM42.1406 34.1298H44.8594V36.8486H42.1406V34.1298Z" fill="black"/>
<path d="M57.5478 30.382C58.8134 31.5117 59.8125 32.4034 59.8125 34.2236C59.8125 36.0438 58.8134 36.9356 57.5478 38.072C55.6239 39.4164 54.4477 41.5904 54.375 43.9364C54.375 44.6871 54.9837 45.2957 55.7344 45.2957C56.4851 45.2957 57.0938 44.6871 57.0938 43.9364C57.0938 42.1162 58.0929 41.2244 59.3585 40.0948C61.2835 38.7483 62.4597 36.5718 62.5312 34.2236C62.4597 31.8758 61.2835 29.6998 59.3585 28.3539C58.0929 27.2242 57.0938 26.3325 57.0938 24.5136C57.0938 22.6948 58.0929 21.8044 59.3585 20.6747C61.2835 19.3301 62.4599 17.1548 62.5312 14.8077C62.5312 14.057 61.9226 13.4483 61.1719 13.4483C60.4212 13.4483 59.8125 14.057 59.8125 14.8077C59.8125 16.6252 58.8134 17.5156 57.5478 18.6452C55.6224 19.9903 54.446 22.1661 54.375 24.5136C54.4467 26.8609 55.6229 29.0366 57.5478 30.382Z" fill="black"/>
<path d="M65.704 30.382C66.9696 31.5117 67.9688 32.4034 67.9688 34.2236C67.9688 36.0438 66.9696 36.9424 65.704 38.0666C63.7786 39.4122 62.6023 41.5884 62.5312 43.9364C62.5312 44.6871 63.1399 45.2957 63.8906 45.2957C64.6413 45.2957 65.25 44.6871 65.25 43.9364C65.25 42.1162 66.2491 41.2244 67.5147 40.0948C69.4398 38.7483 70.616 36.5718 70.6875 34.2236C70.616 31.8758 69.4398 29.6998 67.5147 28.3539C66.2491 27.2242 65.25 26.3325 65.25 24.5136C65.25 22.6948 66.2491 21.8044 67.5147 20.6747C69.4398 19.3301 70.6161 17.1548 70.6875 14.8077C70.6875 14.057 70.0788 13.4483 69.3281 13.4483C68.5774 13.4483 67.9688 14.057 67.9688 14.8077C67.9688 16.6252 66.9696 17.5156 65.704 18.6452C63.7786 19.9903 62.6023 22.1661 62.5312 24.5136C62.603 26.8609 63.7792 29.0366 65.704 30.382Z" fill="black"/>
<path d="M73.8603 30.382C75.1259 31.5117 76.125 32.4034 76.125 34.2236C76.125 36.0438 75.1259 36.9424 73.8603 38.0666C71.9349 39.4122 70.7585 41.5884 70.6875 43.9364C70.6875 44.6871 71.2962 45.2957 72.0469 45.2957C72.7976 45.2957 73.4062 44.6871 73.4062 43.9364C73.4062 42.1162 74.4054 41.2244 75.671 40.0948C77.596 38.7483 78.7722 36.5718 78.8438 34.2236C78.7722 31.8758 77.596 29.6998 75.671 28.3539C74.4054 27.2242 73.4062 26.3325 73.4062 24.5136C73.4062 22.6948 74.4054 21.8044 75.671 20.6747C77.596 19.3301 78.7724 17.1548 78.8438 14.8077C78.8438 14.057 78.2351 13.4483 77.4844 13.4483C76.7337 13.4483 76.125 14.057 76.125 14.8077C76.125 16.6252 75.1259 17.5156 73.8603 18.6452C71.9349 19.9903 70.7585 22.1661 70.6875 24.5136C70.7592 26.8609 71.9354 29.0366 73.8603 30.382Z" fill="black"/>
</mask>
<g mask="url(#mask0_6_61)">
<rect x="-9" y="-11" width="109" height="98" fill="#F7C334"/>
</g>
</svg>
